<mxfile host="app.diagrams.net" modified="2023-12-02T13:07:33.396Z" agent="Mozilla/5.0 (Windows NT 10.0; Win64; x64) AppleWebKit/537.36 (KHTML, like Gecko) Chrome/119.0.0.0 Safari/537.36" etag="MCFYGZoeutDJs3OiQ3Lv" version="22.1.5" type="github">
  <diagram name="Page-1" id="crQNLOtSCioA96oGJTdn">
    <mxGraphModel dx="1187" dy="1227" grid="1" gridSize="10" guides="1" tooltips="1" connect="1" arrows="1" fold="1" page="1" pageScale="1" pageWidth="827" pageHeight="1169" math="0" shadow="0">
      <root>
        <mxCell id="0" />
        <mxCell id="1" parent="0" />
        <mxCell id="JhqWTKUzEKbVO6crrCYd-14" value="" style="rounded=0;whiteSpace=wrap;html=1;" vertex="1" parent="1">
          <mxGeometry x="180" y="620" width="710" height="100" as="geometry" />
        </mxCell>
        <mxCell id="JhqWTKUzEKbVO6crrCYd-13" value="" style="rounded=0;whiteSpace=wrap;html=1;" vertex="1" parent="1">
          <mxGeometry x="180" y="240" width="300" height="100" as="geometry" />
        </mxCell>
        <mxCell id="JhqWTKUzEKbVO6crrCYd-12" value="" style="rounded=0;whiteSpace=wrap;html=1;" vertex="1" parent="1">
          <mxGeometry x="180" y="370" width="300" height="100" as="geometry" />
        </mxCell>
        <mxCell id="JhqWTKUzEKbVO6crrCYd-11" value="" style="rounded=0;whiteSpace=wrap;html=1;" vertex="1" parent="1">
          <mxGeometry x="450" y="490" width="160" height="100" as="geometry" />
        </mxCell>
        <mxCell id="JhqWTKUzEKbVO6crrCYd-10" value="" style="rounded=0;whiteSpace=wrap;html=1;" vertex="1" parent="1">
          <mxGeometry x="40" y="490" width="160" height="100" as="geometry" />
        </mxCell>
        <mxCell id="JhqWTKUzEKbVO6crrCYd-1" value="App UI" style="rounded=1;whiteSpace=wrap;html=1;" vertex="1" parent="1">
          <mxGeometry x="200" y="260" width="120" height="60" as="geometry" />
        </mxCell>
        <mxCell id="JhqWTKUzEKbVO6crrCYd-2" value="" style="shape=actor;whiteSpace=wrap;html=1;" vertex="1" parent="1">
          <mxGeometry x="150" y="275" width="20" height="30" as="geometry" />
        </mxCell>
        <mxCell id="JhqWTKUzEKbVO6crrCYd-3" value="Browsing Logic" style="rounded=1;whiteSpace=wrap;html=1;" vertex="1" parent="1">
          <mxGeometry x="340" y="260" width="120" height="60" as="geometry" />
        </mxCell>
        <mxCell id="JhqWTKUzEKbVO6crrCYd-4" value="Browsing Business&lt;br&gt;Logic" style="rounded=1;whiteSpace=wrap;html=1;" vertex="1" parent="1">
          <mxGeometry x="200" y="390" width="120" height="60" as="geometry" />
        </mxCell>
        <mxCell id="JhqWTKUzEKbVO6crrCYd-5" value="Search" style="rounded=1;whiteSpace=wrap;html=1;" vertex="1" parent="1">
          <mxGeometry x="340" y="390" width="120" height="60" as="geometry" />
        </mxCell>
        <mxCell id="JhqWTKUzEKbVO6crrCYd-7" value="Filter" style="rounded=1;whiteSpace=wrap;html=1;" vertex="1" parent="1">
          <mxGeometry x="60" y="510" width="120" height="60" as="geometry" />
        </mxCell>
        <mxCell id="JhqWTKUzEKbVO6crrCYd-8" value="Login" style="rounded=1;whiteSpace=wrap;html=1;" vertex="1" parent="1">
          <mxGeometry x="470" y="510" width="120" height="60" as="geometry" />
        </mxCell>
        <mxCell id="JhqWTKUzEKbVO6crrCYd-9" value="Database" style="rounded=1;whiteSpace=wrap;html=1;" vertex="1" parent="1">
          <mxGeometry x="200" y="640" width="670" height="60" as="geometry" />
        </mxCell>
        <mxCell id="JhqWTKUzEKbVO6crrCYd-15" value="" style="rounded=0;whiteSpace=wrap;html=1;" vertex="1" parent="1">
          <mxGeometry x="590" y="370" width="300" height="100" as="geometry" />
        </mxCell>
        <mxCell id="JhqWTKUzEKbVO6crrCYd-16" value="Editing Business&lt;br&gt;Logic" style="rounded=1;whiteSpace=wrap;html=1;" vertex="1" parent="1">
          <mxGeometry x="610" y="390" width="120" height="60" as="geometry" />
        </mxCell>
        <mxCell id="JhqWTKUzEKbVO6crrCYd-17" value="Editor" style="rounded=1;whiteSpace=wrap;html=1;" vertex="1" parent="1">
          <mxGeometry x="750" y="390" width="120" height="60" as="geometry" />
        </mxCell>
        <mxCell id="JhqWTKUzEKbVO6crrCYd-18" value="" style="rounded=0;whiteSpace=wrap;html=1;" vertex="1" parent="1">
          <mxGeometry x="590" y="250" width="300" height="100" as="geometry" />
        </mxCell>
        <mxCell id="JhqWTKUzEKbVO6crrCYd-19" value="App UI" style="rounded=1;whiteSpace=wrap;html=1;" vertex="1" parent="1">
          <mxGeometry x="610" y="270" width="120" height="60" as="geometry" />
        </mxCell>
        <mxCell id="JhqWTKUzEKbVO6crrCYd-20" value="" style="shape=actor;whiteSpace=wrap;html=1;" vertex="1" parent="1">
          <mxGeometry x="560" y="285" width="20" height="30" as="geometry" />
        </mxCell>
        <mxCell id="JhqWTKUzEKbVO6crrCYd-21" value="Editing Logic" style="rounded=1;whiteSpace=wrap;html=1;" vertex="1" parent="1">
          <mxGeometry x="750" y="270" width="120" height="60" as="geometry" />
        </mxCell>
        <mxCell id="JhqWTKUzEKbVO6crrCYd-23" value="" style="rounded=0;whiteSpace=wrap;html=1;" vertex="1" parent="1">
          <mxGeometry x="850" y="490" width="160" height="100" as="geometry" />
        </mxCell>
        <mxCell id="JhqWTKUzEKbVO6crrCYd-24" value="Add" style="rounded=1;whiteSpace=wrap;html=1;" vertex="1" parent="1">
          <mxGeometry x="870" y="510" width="120" height="60" as="geometry" />
        </mxCell>
        <mxCell id="JhqWTKUzEKbVO6crrCYd-27" value="" style="rounded=0;whiteSpace=wrap;html=1;" vertex="1" parent="1">
          <mxGeometry x="1030" y="490" width="160" height="100" as="geometry" />
        </mxCell>
        <mxCell id="JhqWTKUzEKbVO6crrCYd-28" value="Delete" style="rounded=1;whiteSpace=wrap;html=1;" vertex="1" parent="1">
          <mxGeometry x="1050" y="510" width="120" height="60" as="geometry" />
        </mxCell>
        <mxCell id="JhqWTKUzEKbVO6crrCYd-29" value="" style="endArrow=open;startArrow=cross;endFill=0;startFill=0;endSize=8;startSize=10;html=1;rounded=0;" edge="1" parent="1">
          <mxGeometry width="160" relative="1" as="geometry">
            <mxPoint x="130" y="419.79" as="sourcePoint" />
            <mxPoint x="170" y="419.79" as="targetPoint" />
          </mxGeometry>
        </mxCell>
        <mxCell id="JhqWTKUzEKbVO6crrCYd-30" value="" style="endArrow=open;startArrow=cross;endFill=0;startFill=0;endSize=8;startSize=10;html=1;rounded=0;" edge="1" parent="1">
          <mxGeometry width="160" relative="1" as="geometry">
            <mxPoint x="540" y="419.57" as="sourcePoint" />
            <mxPoint x="580" y="419.57" as="targetPoint" />
          </mxGeometry>
        </mxCell>
        <mxCell id="JhqWTKUzEKbVO6crrCYd-31" value="" style="endArrow=open;startArrow=cross;endFill=0;startFill=0;endSize=8;startSize=10;html=1;rounded=0;" edge="1" parent="1">
          <mxGeometry width="160" relative="1" as="geometry">
            <mxPoint x="130" y="669.5699999999999" as="sourcePoint" />
            <mxPoint x="170" y="669.5699999999999" as="targetPoint" />
          </mxGeometry>
        </mxCell>
        <mxCell id="JhqWTKUzEKbVO6crrCYd-32" value="" style="endArrow=classic;html=1;rounded=0;" edge="1" parent="1" source="JhqWTKUzEKbVO6crrCYd-13" target="JhqWTKUzEKbVO6crrCYd-12">
          <mxGeometry width="50" height="50" relative="1" as="geometry">
            <mxPoint x="400" y="480" as="sourcePoint" />
            <mxPoint x="450" y="430" as="targetPoint" />
          </mxGeometry>
        </mxCell>
        <mxCell id="JhqWTKUzEKbVO6crrCYd-33" value="" style="endArrow=classic;html=1;rounded=0;" edge="1" parent="1" source="JhqWTKUzEKbVO6crrCYd-12">
          <mxGeometry width="50" height="50" relative="1" as="geometry">
            <mxPoint x="340" y="350" as="sourcePoint" />
            <mxPoint x="330" y="610" as="targetPoint" />
          </mxGeometry>
        </mxCell>
        <mxCell id="JhqWTKUzEKbVO6crrCYd-34" value="" style="endArrow=classic;html=1;rounded=0;entryX=0.996;entryY=0.582;entryDx=0;entryDy=0;entryPerimeter=0;exitX=0.293;exitY=0.992;exitDx=0;exitDy=0;exitPerimeter=0;" edge="1" parent="1" source="JhqWTKUzEKbVO6crrCYd-12" target="JhqWTKUzEKbVO6crrCYd-10">
          <mxGeometry width="50" height="50" relative="1" as="geometry">
            <mxPoint x="340" y="480" as="sourcePoint" />
            <mxPoint x="340" y="620" as="targetPoint" />
          </mxGeometry>
        </mxCell>
        <mxCell id="JhqWTKUzEKbVO6crrCYd-35" value="" style="endArrow=classic;html=1;rounded=0;entryX=0;entryY=0.5;entryDx=0;entryDy=0;exitX=0.724;exitY=1.024;exitDx=0;exitDy=0;exitPerimeter=0;" edge="1" parent="1" source="JhqWTKUzEKbVO6crrCYd-12" target="JhqWTKUzEKbVO6crrCYd-11">
          <mxGeometry width="50" height="50" relative="1" as="geometry">
            <mxPoint x="278" y="479" as="sourcePoint" />
            <mxPoint x="209" y="558" as="targetPoint" />
          </mxGeometry>
        </mxCell>
        <mxCell id="JhqWTKUzEKbVO6crrCYd-36" value="" style="endArrow=classic;html=1;rounded=0;" edge="1" parent="1" source="JhqWTKUzEKbVO6crrCYd-11">
          <mxGeometry width="50" height="50" relative="1" as="geometry">
            <mxPoint x="407" y="482" as="sourcePoint" />
            <mxPoint x="530" y="620" as="targetPoint" />
          </mxGeometry>
        </mxCell>
        <mxCell id="JhqWTKUzEKbVO6crrCYd-37" value="" style="endArrow=classic;html=1;rounded=0;exitX=0.428;exitY=1.006;exitDx=0;exitDy=0;exitPerimeter=0;" edge="1" parent="1" source="JhqWTKUzEKbVO6crrCYd-10" target="JhqWTKUzEKbVO6crrCYd-38">
          <mxGeometry width="50" height="50" relative="1" as="geometry">
            <mxPoint x="278" y="479" as="sourcePoint" />
            <mxPoint x="110" y="630" as="targetPoint" />
          </mxGeometry>
        </mxCell>
        <mxCell id="JhqWTKUzEKbVO6crrCYd-38" value="external&amp;nbsp;&lt;br&gt;sys" style="ellipse;whiteSpace=wrap;html=1;aspect=fixed;" vertex="1" parent="1">
          <mxGeometry x="90" y="610" width="30" height="30" as="geometry" />
        </mxCell>
        <mxCell id="JhqWTKUzEKbVO6crrCYd-39" value="" style="endArrow=classic;html=1;rounded=0;entryX=0.5;entryY=0;entryDx=0;entryDy=0;" edge="1" parent="1" source="JhqWTKUzEKbVO6crrCYd-18" target="JhqWTKUzEKbVO6crrCYd-15">
          <mxGeometry width="50" height="50" relative="1" as="geometry">
            <mxPoint x="407" y="482" as="sourcePoint" />
            <mxPoint x="460" y="550" as="targetPoint" />
          </mxGeometry>
        </mxCell>
        <mxCell id="JhqWTKUzEKbVO6crrCYd-40" value="" style="endArrow=classic;html=1;rounded=0;entryX=0;entryY=0.5;entryDx=0;entryDy=0;exitX=0.692;exitY=1;exitDx=0;exitDy=0;exitPerimeter=0;" edge="1" parent="1" source="JhqWTKUzEKbVO6crrCYd-15" target="JhqWTKUzEKbVO6crrCYd-23">
          <mxGeometry width="50" height="50" relative="1" as="geometry">
            <mxPoint x="750" y="360" as="sourcePoint" />
            <mxPoint x="750" y="380" as="targetPoint" />
          </mxGeometry>
        </mxCell>
        <mxCell id="JhqWTKUzEKbVO6crrCYd-41" value="" style="endArrow=classic;html=1;rounded=0;entryX=1;entryY=0.5;entryDx=0;entryDy=0;" edge="1" parent="1" source="JhqWTKUzEKbVO6crrCYd-15" target="JhqWTKUzEKbVO6crrCYd-11">
          <mxGeometry width="50" height="50" relative="1" as="geometry">
            <mxPoint x="808" y="480" as="sourcePoint" />
            <mxPoint x="860" y="550" as="targetPoint" />
          </mxGeometry>
        </mxCell>
        <mxCell id="JhqWTKUzEKbVO6crrCYd-42" value="" style="endArrow=classic;html=1;rounded=0;entryX=0.75;entryY=0;entryDx=0;entryDy=0;exitX=0.454;exitY=0.988;exitDx=0;exitDy=0;exitPerimeter=0;" edge="1" parent="1" source="JhqWTKUzEKbVO6crrCYd-15" target="JhqWTKUzEKbVO6crrCYd-14">
          <mxGeometry width="50" height="50" relative="1" as="geometry">
            <mxPoint x="696" y="480" as="sourcePoint" />
            <mxPoint x="620" y="550" as="targetPoint" />
          </mxGeometry>
        </mxCell>
        <mxCell id="JhqWTKUzEKbVO6crrCYd-43" value="" style="endArrow=classic;html=1;rounded=0;exitX=0.467;exitY=0;exitDx=0;exitDy=0;exitPerimeter=0;" edge="1" parent="1" source="JhqWTKUzEKbVO6crrCYd-12">
          <mxGeometry width="50" height="50" relative="1" as="geometry">
            <mxPoint x="340" y="350" as="sourcePoint" />
            <mxPoint x="320" y="350" as="targetPoint" />
          </mxGeometry>
        </mxCell>
        <mxCell id="JhqWTKUzEKbVO6crrCYd-44" value="" style="endArrow=classic;html=1;rounded=0;exitX=0.988;exitY=0.45;exitDx=0;exitDy=0;exitPerimeter=0;" edge="1" parent="1" source="JhqWTKUzEKbVO6crrCYd-10">
          <mxGeometry width="50" height="50" relative="1" as="geometry">
            <mxPoint x="330" y="380" as="sourcePoint" />
            <mxPoint x="210" y="520" as="targetPoint" />
          </mxGeometry>
        </mxCell>
        <mxCell id="JhqWTKUzEKbVO6crrCYd-45" value="" style="endArrow=classic;html=1;rounded=0;exitX=-0.012;exitY=0.595;exitDx=0;exitDy=0;exitPerimeter=0;" edge="1" parent="1" source="JhqWTKUzEKbVO6crrCYd-11">
          <mxGeometry width="50" height="50" relative="1" as="geometry">
            <mxPoint x="208" y="545" as="sourcePoint" />
            <mxPoint x="430" y="530" as="targetPoint" />
          </mxGeometry>
        </mxCell>
        <mxCell id="JhqWTKUzEKbVO6crrCYd-47" value="" style="endArrow=classic;html=1;rounded=0;" edge="1" parent="1">
          <mxGeometry width="50" height="50" relative="1" as="geometry">
            <mxPoint x="730" y="370" as="sourcePoint" />
            <mxPoint x="730" y="360" as="targetPoint" />
          </mxGeometry>
        </mxCell>
        <mxCell id="JhqWTKUzEKbVO6crrCYd-49" value="" style="endArrow=classic;html=1;rounded=0;exitX=0.988;exitY=0.45;exitDx=0;exitDy=0;exitPerimeter=0;" edge="1" parent="1">
          <mxGeometry width="50" height="50" relative="1" as="geometry">
            <mxPoint x="610" y="525" as="sourcePoint" />
            <mxPoint x="622" y="510" as="targetPoint" />
          </mxGeometry>
        </mxCell>
        <mxCell id="JhqWTKUzEKbVO6crrCYd-50" value="" style="endArrow=classic;html=1;rounded=0;exitX=-0.012;exitY=0.595;exitDx=0;exitDy=0;exitPerimeter=0;" edge="1" parent="1">
          <mxGeometry width="50" height="50" relative="1" as="geometry">
            <mxPoint x="850" y="520" as="sourcePoint" />
            <mxPoint x="832" y="500" as="targetPoint" />
          </mxGeometry>
        </mxCell>
        <mxCell id="JhqWTKUzEKbVO6crrCYd-51" value="" style="endArrow=classic;html=1;rounded=0;exitX=1.001;exitY=0.42;exitDx=0;exitDy=0;exitPerimeter=0;" edge="1" parent="1" source="JhqWTKUzEKbVO6crrCYd-15" target="JhqWTKUzEKbVO6crrCYd-27">
          <mxGeometry width="50" height="50" relative="1" as="geometry">
            <mxPoint x="808" y="480" as="sourcePoint" />
            <mxPoint x="860" y="550" as="targetPoint" />
          </mxGeometry>
        </mxCell>
        <mxCell id="JhqWTKUzEKbVO6crrCYd-52" value="" style="endArrow=classic;html=1;rounded=0;exitX=0.067;exitY=0.006;exitDx=0;exitDy=0;exitPerimeter=0;" edge="1" parent="1" source="JhqWTKUzEKbVO6crrCYd-27">
          <mxGeometry width="50" height="50" relative="1" as="geometry">
            <mxPoint x="860" y="530" as="sourcePoint" />
            <mxPoint x="1020" y="470" as="targetPoint" />
          </mxGeometry>
        </mxCell>
        <mxCell id="JhqWTKUzEKbVO6crrCYd-53" value="" style="endArrow=classic;html=1;rounded=0;entryX=1;entryY=0;entryDx=0;entryDy=0;" edge="1" parent="1" source="JhqWTKUzEKbVO6crrCYd-23" target="JhqWTKUzEKbVO6crrCYd-14">
          <mxGeometry width="50" height="50" relative="1" as="geometry">
            <mxPoint x="736" y="479" as="sourcePoint" />
            <mxPoint x="723" y="630" as="targetPoint" />
          </mxGeometry>
        </mxCell>
        <mxCell id="JhqWTKUzEKbVO6crrCYd-54" value="" style="endArrow=classic;html=1;rounded=0;entryX=0.998;entryY=0.403;entryDx=0;entryDy=0;entryPerimeter=0;" edge="1" parent="1" source="JhqWTKUzEKbVO6crrCYd-27" target="JhqWTKUzEKbVO6crrCYd-14">
          <mxGeometry width="50" height="50" relative="1" as="geometry">
            <mxPoint x="915" y="600" as="sourcePoint" />
            <mxPoint x="900" y="630" as="targetPoint" />
          </mxGeometry>
        </mxCell>
        <mxCell id="JhqWTKUzEKbVO6crrCYd-55" value="Filter" style="text;html=1;strokeColor=none;fillColor=none;align=center;verticalAlign=middle;whiteSpace=wrap;rounded=0;" vertex="1" parent="1">
          <mxGeometry x="90" y="460" width="60" height="30" as="geometry" />
        </mxCell>
        <mxCell id="JhqWTKUzEKbVO6crrCYd-56" value="Logger" style="text;html=1;strokeColor=none;fillColor=none;align=center;verticalAlign=middle;whiteSpace=wrap;rounded=0;" vertex="1" parent="1">
          <mxGeometry x="500" y="460" width="60" height="30" as="geometry" />
        </mxCell>
        <mxCell id="JhqWTKUzEKbVO6crrCYd-57" value="Add" style="text;html=1;strokeColor=none;fillColor=none;align=center;verticalAlign=middle;whiteSpace=wrap;rounded=0;" vertex="1" parent="1">
          <mxGeometry x="900" y="460" width="60" height="30" as="geometry" />
        </mxCell>
        <mxCell id="JhqWTKUzEKbVO6crrCYd-58" value="Delete" style="text;html=1;strokeColor=none;fillColor=none;align=center;verticalAlign=middle;whiteSpace=wrap;rounded=0;" vertex="1" parent="1">
          <mxGeometry x="1080" y="460" width="60" height="30" as="geometry" />
        </mxCell>
        <mxCell id="JhqWTKUzEKbVO6crrCYd-59" value="GUI" style="text;html=1;strokeColor=none;fillColor=none;align=center;verticalAlign=middle;whiteSpace=wrap;rounded=0;" vertex="1" parent="1">
          <mxGeometry x="300" y="210" width="60" height="30" as="geometry" />
        </mxCell>
        <mxCell id="JhqWTKUzEKbVO6crrCYd-60" value="GUI" style="text;html=1;strokeColor=none;fillColor=none;align=center;verticalAlign=middle;whiteSpace=wrap;rounded=0;" vertex="1" parent="1">
          <mxGeometry x="710" y="220" width="60" height="30" as="geometry" />
        </mxCell>
        <mxCell id="JhqWTKUzEKbVO6crrCYd-61" value="HTTP" style="text;html=1;strokeColor=none;fillColor=none;align=center;verticalAlign=middle;whiteSpace=wrap;rounded=0;" vertex="1" parent="1">
          <mxGeometry x="330" y="340" width="60" height="30" as="geometry" />
        </mxCell>
        <mxCell id="JhqWTKUzEKbVO6crrCYd-62" value="HTTP" style="text;html=1;strokeColor=none;fillColor=none;align=center;verticalAlign=middle;whiteSpace=wrap;rounded=0;" vertex="1" parent="1">
          <mxGeometry x="740" y="350" width="60" height="30" as="geometry" />
        </mxCell>
      </root>
    </mxGraphModel>
  </diagram>
</mxfile>
